<svg xmlns="http://www.w3.org/2000/svg" viewBox="0 0 512 512">
  <rect width="512" height="512" fill="#0f1316"/>
  <g fill="none" stroke="#84908b" stroke-linecap="round" stroke-width="14" opacity=".8">
    <path d="M70 330c50-24 100-24 150 0s100 24 150 0 60-16 72-8"/>
    <path d="M70 380c50-24 100-24 150 0s100 24 150 0 60-16 72-8" opacity=".6"/>
    <path d="M70 430c50-24 100-24 150 0s100 24 150 0 60-16 72-8" opacity=".35"/>
  </g>
  <rect x="206" y="110" width="100" height="150" rx="8" fill="#cf8a93"/>
  <path d="M206 150h100M206 220h100" stroke="#0f1316" stroke-width="8" opacity=".5"/>
</svg>
